<svg width="20" height="20" viewBox="0 0 20 20" fill="none" xmlns="http://www.w3.org/2000/svg">
<path d="M20 6.5C20 7.87 18.88 9 17.5 9C16.12 9 15 7.87 15 6.5C15 7.87 13.88 9 12.5 9C11.12 9 10 7.87 10 6.5C10 7.87 8.88 9 7.5 9C6.12 9 5 7.87 5 6.5C5 7.87 3.88 9 2.5 9C1.12 9 0 7.87 0 6.5L1.39 1.08C1.39 1.08 1.68 0 2.7 0H17.3C18.32 0 18.61 1.08 18.61 1.08L20 6.5ZM19 10.2V18C19 19.1 18.1 20 17 20H3C1.9 20 1 19.1 1 18V10.2C1.65738 10.4714 2.37572 10.5608 3.07957 10.4588C3.78342 10.3567 4.44679 10.067 5 9.62C5.69 10.17 6.56 10.5 7.5 10.5C8.45 10.5 9.32 10.17 10 9.62C10.69 10.17 11.56 10.5 12.5 10.5C13.45 10.5 14.32 10.17 15 9.62C15.68 10.17 16.56 10.5 17.5 10.5C18.03 10.5 18.54 10.39 19 10.2ZM17 15.33C17 15.13 17 14.92 16.95 14.7L16.92 14.54H13.95V15.71H15.76C15.7 15.93 15.62 16.15 15.45 16.33C15.12 16.66 14.67 16.84 14.19 16.84C13.69 16.84 13.2 16.63 12.84 16.28C12.15 15.57 12.15 14.42 12.86 13.7C13.55 13 14.69 13 15.41 13.67L15.55 13.8L16.39 12.95L16.23 12.81C15.67 12.29 14.93 12 14.15 12H14.14C13.33 12 12.57 12.31 12 12.87C11.41 13.45 11.08 14.21 11.08 15C11.08 15.8 11.39 16.54 11.96 17.09C12.554 17.6698 13.35 17.9961 14.18 18H14.2C15 18 15.71 17.71 16.23 17.2C16.7 16.72 17 16 17 15.33Z" fill="black"/>
</svg>
